<svg width="27" height="22" viewBox="0 0 27 22" fill="none" xmlns="http://www.w3.org/2000/svg">
<path d="M14.3576 14.1728C13.2496 13.415 12.4084 12.3109 11.9584 11.0239C11.5084 9.73683 11.4735 8.33518 11.8588 7.02618C12.2441 5.71718 13.0292 4.57032 14.098 3.75521C15.1668 2.9401 16.4625 2.5 17.7936 2.5C19.1247 2.5 20.4204 2.9401 21.4892 3.75521C22.558 4.57032 23.3431 5.71718 23.7284 7.02618C24.1137 8.33518 24.0788 9.73683 23.6288 11.0239C23.1788 12.3109 22.3376 13.415 21.2296 14.1728C23.2338 14.9318 24.9455 16.3362 26.1092 18.1765C26.1704 18.2699 26.2128 18.3748 26.2342 18.4852C26.2555 18.5957 26.2553 18.7093 26.2335 18.8196C26.2117 18.9299 26.1688 19.0347 26.1072 19.1278C26.0456 19.2209 25.9667 19.3006 25.8749 19.362C25.7832 19.4235 25.6804 19.4657 25.5727 19.486C25.4649 19.5064 25.3543 19.5045 25.2472 19.4805C25.1402 19.4565 25.0389 19.411 24.9491 19.3464C24.8594 19.2818 24.783 19.1996 24.7245 19.1044C23.9738 17.9183 22.9467 16.9436 21.7363 16.2688C20.5259 15.594 19.1707 15.2406 17.7936 15.2406C16.4165 15.2406 15.0612 15.594 13.8509 16.2688C12.6405 16.9436 11.6133 17.9183 10.8627 19.1044C10.7414 19.2896 10.5541 19.4183 10.3413 19.4627C10.1284 19.5071 9.90709 19.4636 9.72516 19.3417C9.54324 19.2198 9.41532 19.0292 9.36906 18.8112C9.3228 18.5931 9.36193 18.3651 9.47797 18.1765C10.6417 16.3362 12.3533 14.9318 14.3576 14.1728ZM22.3405 8.8728C22.3405 7.94886 22.0738 7.04568 21.5742 6.27746C21.0746 5.50923 20.3644 4.91048 19.5336 4.5569C18.7028 4.20333 17.7885 4.11082 16.9065 4.29107C16.0245 4.47132 15.2144 4.91624 14.5785 5.56956C13.9426 6.22288 13.5095 7.05525 13.3341 7.96144C13.1586 8.86762 13.2487 9.8069 13.5928 10.6605C13.937 11.5141 14.5197 12.2437 15.2675 12.757C16.0152 13.2703 16.8943 13.5443 17.7936 13.5443C18.9991 13.5429 20.1548 13.0503 21.0072 12.1745C21.8596 11.2987 22.3391 10.1113 22.3405 8.8728ZM0.625002 19.3518C0.808636 19.4748 1.03231 19.5179 1.24684 19.4715C1.46136 19.4251 1.64917 19.2931 1.76895 19.1044C2.51869 17.9176 3.54571 16.9424 4.75633 16.268C5.96696 15.5935 7.32267 15.2411 8.69984 15.243C8.91909 15.243 9.12937 15.1535 9.28441 14.9942C9.43944 14.835 9.52654 14.6189 9.52654 14.3937C9.52654 14.1684 9.43944 13.9523 9.28441 13.7931C9.12937 13.6338 8.91909 13.5443 8.69984 13.5443C8.03024 13.5436 7.36904 13.3911 6.7635 13.0974C6.15795 12.8038 5.623 12.3764 5.19686 11.8457C4.77073 11.3151 4.46393 10.6943 4.29839 10.0277C4.13285 9.3611 4.11266 8.66516 4.23925 7.98962C4.36584 7.31407 4.6361 6.6756 5.0307 6.1198C5.42531 5.564 5.93453 5.10461 6.52198 4.77445C7.10943 4.44429 7.7606 4.2515 8.42897 4.20987C9.09734 4.16824 9.76641 4.27879 10.3884 4.53362C10.4898 4.57866 10.599 4.60236 10.7094 4.60332C10.8199 4.60428 10.9295 4.58248 11.0316 4.53921C11.1337 4.49593 11.2264 4.43207 11.3041 4.35138C11.3818 4.27069 11.443 4.17482 11.484 4.06943C11.525 3.96405 11.5451 3.85128 11.543 3.73779C11.5409 3.6243 11.5166 3.5124 11.4717 3.4087C11.4268 3.30499 11.3621 3.21159 11.2815 3.13401C11.2008 3.05642 11.1059 2.99623 11.0022 2.95699C9.57877 2.37375 7.99553 2.35276 6.55791 2.89808C5.12029 3.44339 3.93017 4.51637 3.21714 5.91003C2.5041 7.30368 2.31867 8.91926 2.69662 10.4451C3.07458 11.9709 3.98913 13.2989 5.26385 14.1728C3.2596 14.9318 1.54792 16.3362 0.384224 18.1765C0.264479 18.3652 0.222574 18.595 0.267729 18.8154C0.312881 19.0358 0.441393 19.2287 0.625002 19.3518Z" fill="#F7F9F9"/>
</svg>
