<svg width="27" height="22" viewBox="0 0 27 22" fill="none" xmlns="http://www.w3.org/2000/svg">
<path d="M20.75 3H18.5V2.25C18.5 2.05109 18.421 1.86032 18.2803 1.71967C18.1397 1.57902 17.9489 1.5 17.75 1.5C17.5511 1.5 17.3603 1.57902 17.2197 1.71967C17.079 1.86032 17 2.05109 17 2.25V3H9.5V2.25C9.5 2.05109 9.42098 1.86032 9.28033 1.71967C9.13968 1.57902 8.94891 1.5 8.75 1.5C8.55109 1.5 8.36032 1.57902 8.21967 1.71967C8.07902 1.86032 8 2.05109 8 2.25V3H5.75C5.35218 3 4.97064 3.15804 4.68934 3.43934C4.40804 3.72064 4.25 4.10218 4.25 4.5V19.5C4.25 19.8978 4.40804 20.2794 4.68934 20.5607C4.97064 20.842 5.35218 21 5.75 21H20.75C21.1478 21 21.5294 20.842 21.8107 20.5607C22.092 20.2794 22.25 19.8978 22.25 19.5V4.5C22.25 4.10218 22.092 3.72064 21.8107 3.43934C21.5294 3.15804 21.1478 3 20.75 3ZM8 4.5V5.25C8 5.44891 8.07902 5.63968 8.21967 5.78033C8.36032 5.92098 8.55109 6 8.75 6C8.94891 6 9.13968 5.92098 9.28033 5.78033C9.42098 5.63968 9.5 5.44891 9.5 5.25V4.5H17V5.25C17 5.44891 17.079 5.63968 17.2197 5.78033C17.3603 5.92098 17.5511 6 17.75 6C17.9489 6 18.1397 5.92098 18.2803 5.78033C18.421 5.63968 18.5 5.44891 18.5 5.25V4.5H20.75V7.5H5.75V4.5H8ZM20.75 19.5H5.75V9H20.75V19.5Z" fill="#F7F9F9"/>
</svg>
