<svg width="27" height="22" viewBox="0 0 27 22" fill="none" xmlns="http://www.w3.org/2000/svg">
<path d="M23.25 10.5796V20.66C23.25 20.8828 23.1622 21.0964 23.0059 21.254C22.8496 21.4115 22.6377 21.5 22.4167 21.5H16.5833C16.3623 21.5 16.1504 21.4115 15.9941 21.254C15.8378 21.0964 15.75 20.8828 15.75 20.66V15.1998C15.75 15.0884 15.7061 14.9815 15.628 14.9028C15.5498 14.824 15.4438 14.7798 15.3333 14.7798H11.1667C11.0562 14.7798 10.9502 14.824 10.872 14.9028C10.7939 14.9815 10.75 15.0884 10.75 15.1998V20.66C10.75 20.8828 10.6622 21.0964 10.5059 21.254C10.3496 21.4115 10.1377 21.5 9.91667 21.5H4.08333C3.86232 21.5 3.65036 21.4115 3.49408 21.254C3.3378 21.0964 3.25 20.8828 3.25 20.66V10.5796C3.2502 10.1341 3.42593 9.70691 3.73854 9.392L12.0719 0.99169C12.3844 0.676855 12.8082 0.5 13.25 0.5C13.6918 0.5 14.1156 0.676855 14.4281 0.99169L22.7615 9.392C23.0741 9.70691 23.2498 10.1341 23.25 10.5796Z" fill="#F7F9F9"/>
</svg>
