<svg width="35" height="34" viewBox="0 0 35 34" fill="none" xmlns="http://www.w3.org/2000/svg">
<path d="M34.25 17C34.25 17.3757 34.1007 17.7361 33.8351 18.0017C33.5694 18.2674 33.2091 18.4167 32.8333 18.4167H18.6667V32.5833C18.6667 32.9591 18.5174 33.3194 18.2517 33.5851C17.9861 33.8507 17.6257 34 17.25 34C16.8743 34 16.5139 33.8507 16.2483 33.5851C15.9826 33.3194 15.8333 32.9591 15.8333 32.5833V18.4167H1.66667C1.29094 18.4167 0.930609 18.2674 0.664932 18.0017C0.399256 17.7361 0.25 17.3757 0.25 17C0.25 16.6243 0.399256 16.2639 0.664932 15.9983C0.930609 15.7326 1.29094 15.5833 1.66667 15.5833H15.8333V1.41667C15.8333 1.04094 15.9826 0.680609 16.2483 0.414932C16.5139 0.149256 16.8743 0 17.25 0C17.6257 0 17.9861 0.149256 18.2517 0.414932C18.5174 0.680609 18.6667 1.04094 18.6667 1.41667V15.5833H32.8333C33.2091 15.5833 33.5694 15.7326 33.8351 15.9983C34.1007 16.2639 34.25 16.6243 34.25 17Z" fill="#F7F9F9"/>
</svg>
