<svg width="27" height="22" viewBox="0 0 27 22" fill="none" xmlns="http://www.w3.org/2000/svg">
<path d="M22 10.75H20.5V6.25C20.5 5.85218 20.342 5.47064 20.0607 5.18934C19.7794 4.90804 19.3978 4.75 19 4.75H15.25C14.8522 4.75 14.4706 4.90804 14.1893 5.18934C13.908 5.47064 13.75 5.85218 13.75 6.25V10.75H12.25V4C12.25 3.60218 12.092 3.22064 11.8107 2.93934C11.5294 2.65804 11.1478 2.5 10.75 2.5H7C6.60218 2.5 6.22064 2.65804 5.93934 2.93934C5.65804 3.22064 5.5 3.60218 5.5 4V10.75H4C3.80109 10.75 3.61032 10.829 3.46967 10.9697C3.32902 11.1103 3.25 11.3011 3.25 11.5C3.25 11.6989 3.32902 11.8897 3.46967 12.0303C3.61032 12.171 3.80109 12.25 4 12.25H5.5V19C5.5 19.3978 5.65804 19.7794 5.93934 20.0607C6.22064 20.342 6.60218 20.5 7 20.5H10.75C11.1478 20.5 11.5294 20.342 11.8107 20.0607C12.092 19.7794 12.25 19.3978 12.25 19V12.25H13.75V16.75C13.75 17.1478 13.908 17.5294 14.1893 17.8107C14.4706 18.092 14.8522 18.25 15.25 18.25H19C19.3978 18.25 19.7794 18.092 20.0607 17.8107C20.342 17.5294 20.5 17.1478 20.5 16.75V12.25H22C22.1989 12.25 22.3897 12.171 22.5303 12.0303C22.671 11.8897 22.75 11.6989 22.75 11.5C22.75 11.3011 22.671 11.1103 22.5303 10.9697C22.3897 10.829 22.1989 10.75 22 10.75ZM10.75 19H7V4H10.75V19ZM19 16.75H15.25V6.25H19V16.75Z" fill="#F7F9F9"/>
</svg>
