<svg width="24" height="24" viewBox="0 0 24 24" fill="none" xmlns="http://www.w3.org/2000/svg">
<path d="M22.991 21.9907L17.4604 16.4612C19.0634 14.5367 19.8628 12.0683 19.6922 9.56946C19.5216 7.07063 18.3942 4.73378 16.5445 3.04502C14.6948 1.35625 12.2653 0.445608 9.76126 0.502515C7.25726 0.559423 4.8716 1.5795 3.10055 3.35055C1.3295 5.1216 0.309423 7.50726 0.252515 10.0113C0.195608 12.5153 1.10625 14.9448 2.79502 16.7945C4.48378 18.6442 6.82063 19.7716 9.31946 19.9422C11.8183 20.1128 14.2867 19.3134 16.2112 17.7104L21.7407 23.241C21.8228 23.3231 21.9202 23.3883 22.0275 23.4327C22.1348 23.4771 22.2497 23.5 22.3659 23.5C22.482 23.5 22.5969 23.4771 22.7042 23.4327C22.8115 23.3883 22.9089 23.3231 22.991 23.241C23.0731 23.1589 23.1383 23.0615 23.1827 22.9542C23.2271 22.8469 23.25 22.732 23.25 22.6159C23.25 22.4997 23.2271 22.3848 23.1827 22.2775C23.1383 22.1702 23.0731 22.0728 22.991 21.9907ZM2.04173 10.2446C2.04173 8.67171 2.50816 7.13409 3.38204 5.82624C4.25592 4.51839 5.49799 3.49905 6.9512 2.89711C8.4044 2.29517 10.0035 2.13768 11.5462 2.44454C13.0889 2.75141 14.506 3.50885 15.6182 4.62108C16.7304 5.73332 17.4879 7.15039 17.7948 8.69311C18.1016 10.2358 17.9441 11.8349 17.3422 13.2881C16.7402 14.7413 15.7209 15.9834 14.413 16.8573C13.1052 17.7311 11.5676 18.1976 9.99465 18.1976C7.88612 18.1952 5.86462 17.3566 4.37367 15.8656C2.88271 14.3747 2.04407 12.3532 2.04173 10.2446Z" fill="black"/>
</svg>
