<svg width="27" height="22" viewBox="0 0 27 22" fill="none" xmlns="http://www.w3.org/2000/svg">
<path d="M12.7485 6.18272C11.796 6.18272 10.8649 6.46516 10.073 6.99433C9.28104 7.52349 8.6638 8.27561 8.2993 9.15558C7.93481 10.0355 7.83944 11.0038 8.02526 11.938C8.21107 12.8722 8.66973 13.7303 9.34323 14.4038C10.0167 15.0773 10.8748 15.5359 11.809 15.7217C12.7432 15.9076 13.7114 15.8122 14.5914 15.4477C15.4714 15.0832 16.2235 14.4659 16.7527 13.674C17.2818 12.882 17.5643 11.951 17.5643 10.9985C17.5629 9.72168 17.0551 8.49754 16.1523 7.5947C15.2495 6.69185 14.0253 6.18405 12.7485 6.18272ZM12.7485 14.209C12.1135 14.209 11.4928 14.0207 10.9648 13.6679C10.4369 13.3152 10.0254 12.8138 9.78236 12.2271C9.53937 11.6405 9.47579 10.9949 9.59967 10.3722C9.72355 9.74938 10.0293 9.17732 10.4783 8.72832C10.9273 8.27932 11.4994 7.97355 12.1222 7.84967C12.7449 7.72579 13.3905 7.78937 13.9771 8.03236C14.5638 8.27536 15.0652 8.68686 15.4179 9.21483C15.7707 9.74279 15.959 10.3635 15.959 10.9985C15.959 11.85 15.6208 12.6666 15.0187 13.2687C14.4166 13.8708 13.6 14.209 12.7485 14.209ZM21.5774 11.2152C21.5814 11.0707 21.5814 10.9263 21.5774 10.7818L23.0743 8.91166C23.1528 8.81347 23.2071 8.69822 23.2329 8.57519C23.2587 8.45215 23.2552 8.32479 23.2228 8.20334C22.9774 7.28092 22.6103 6.39527 22.1312 5.56971C22.0685 5.46168 21.9814 5.36978 21.8769 5.30132C21.7724 5.23287 21.6534 5.18976 21.5293 5.17542L19.1495 4.91055C19.0505 4.80621 18.9501 4.70588 18.8485 4.60957L18.5676 2.22375C18.5531 2.09956 18.5098 1.98046 18.4412 1.87595C18.3726 1.77143 18.2805 1.6844 18.1723 1.62178C17.3464 1.14356 16.4608 0.776849 15.5386 0.53121C15.4171 0.498901 15.2897 0.495597 15.1667 0.521563C15.0436 0.547529 14.9284 0.60204 14.8303 0.6807L12.9652 2.16958C12.8207 2.16958 12.6763 2.16958 12.5318 2.16958L10.6617 0.675684C10.5635 0.597195 10.4482 0.542866 10.3252 0.517075C10.2022 0.491284 10.0748 0.494751 9.95334 0.527197C9.03107 0.77303 8.14547 1.14009 7.31971 1.61877C7.21168 1.6815 7.11978 1.76859 7.05132 1.87309C6.98287 1.9776 6.93976 2.09664 6.92542 2.22074L6.66055 4.60455C6.55621 4.70421 6.45588 4.80454 6.35957 4.90554L3.97375 5.17944C3.84956 5.19388 3.73046 5.23715 3.62595 5.30578C3.52143 5.37441 3.4344 5.46651 3.37178 5.57473C2.89356 6.4006 2.52685 7.28618 2.28121 8.20836C2.2489 8.32988 2.2456 8.45729 2.27156 8.58033C2.29753 8.70336 2.35204 8.81857 2.4307 8.91668L3.91958 10.7818C3.91958 10.9263 3.91958 11.0707 3.91958 11.2152L2.42568 13.0853C2.34719 13.1835 2.29287 13.2988 2.26708 13.4218C2.24128 13.5448 2.24475 13.6722 2.2772 13.7937C2.52259 14.7161 2.88967 15.6017 3.36877 16.4273C3.4315 16.5353 3.51859 16.6272 3.62309 16.6957C3.7276 16.7641 3.84664 16.8072 3.97074 16.8216L6.35054 17.0864C6.4502 17.1908 6.55053 17.2911 6.65153 17.3874L6.92944 19.7732C6.94388 19.8974 6.98715 20.0165 7.05578 20.121C7.12441 20.2256 7.21651 20.3126 7.32473 20.3752C8.1506 20.8534 9.03618 21.2201 9.95836 21.4658C10.0799 21.4981 10.2073 21.5014 10.3303 21.4754C10.4534 21.4495 10.5686 21.395 10.6667 21.3163L12.5318 19.8274C12.6763 19.8314 12.8207 19.8314 12.9652 19.8274L14.8353 21.3243C14.9335 21.4028 15.0488 21.4571 15.1718 21.4829C15.2948 21.5087 15.4222 21.5052 15.5437 21.4728C16.4661 21.2274 17.3517 20.8603 18.1773 20.3812C18.2853 20.3185 18.3772 20.2314 18.4457 20.1269C18.5141 20.0224 18.5572 19.9034 18.5716 19.7793L18.8364 17.3995C18.9408 17.3005 19.0411 17.2001 19.1374 17.0985L21.5232 16.8176C21.6474 16.8031 21.7665 16.7598 21.871 16.6912C21.9756 16.6226 22.0626 16.5305 22.1252 16.4223C22.6034 15.5964 22.9701 14.7108 23.2158 13.7886C23.2481 13.6671 23.2514 13.5397 23.2254 13.4167C23.1995 13.2936 23.145 13.1784 23.0663 13.0803L21.5774 11.2152ZM19.9621 10.5631C19.9792 10.8531 19.9792 11.1439 19.9621 11.4339C19.9502 11.6325 20.0124 11.8284 20.1367 11.9837L21.5604 13.7625C21.397 14.2817 21.1878 14.7853 20.9353 15.2675L18.6679 15.5243C18.4704 15.5462 18.2881 15.6406 18.1562 15.7892C17.9631 16.0064 17.7574 16.2121 17.5402 16.4052C17.3916 16.5371 17.2972 16.7194 17.2753 16.9169L17.0235 19.1823C16.5414 19.4349 16.0378 19.6441 15.5186 19.8073L13.7387 18.3837C13.5963 18.2699 13.4194 18.208 13.2371 18.2081H13.1889C12.8989 18.2252 12.6081 18.2252 12.3181 18.2081C12.1195 18.1962 11.9236 18.2584 11.7683 18.3827L9.98444 19.8073C9.46527 19.644 8.96165 19.4348 8.47951 19.1823L8.22267 16.9179C8.20075 16.7204 8.10638 16.5381 7.9578 16.4062C7.7406 16.2131 7.53491 16.0074 7.34179 15.7902C7.20989 15.6416 7.02757 15.5472 6.83011 15.5253L4.56469 15.2725C4.31205 14.7904 4.10288 14.2868 3.93964 13.7676L5.36331 11.9877C5.48762 11.8324 5.54983 11.6365 5.53788 11.4379C5.52082 11.1479 5.52082 10.8571 5.53788 10.5671C5.54983 10.3685 5.48762 10.1726 5.36331 10.0173L3.93964 8.23444C4.103 7.71527 4.31217 7.21165 4.56469 6.72951L6.82911 6.47267C7.02657 6.45075 7.20888 6.35638 7.34078 6.2078C7.53391 5.9906 7.7396 5.78491 7.9568 5.59179C8.10597 5.4598 8.20073 5.27707 8.22267 5.07911L8.4745 2.81469C8.95658 2.56205 9.46021 2.35288 9.97943 2.18964L11.7593 3.61331C11.9146 3.73762 12.1105 3.79983 12.3091 3.78788C12.5991 3.77082 12.8899 3.77082 13.1799 3.78788C13.3785 3.79983 13.5744 3.73762 13.7297 3.61331L15.5125 2.18964C16.0317 2.353 16.5353 2.56217 17.0175 2.81469L17.2743 5.07911C17.2962 5.27657 17.3906 5.45888 17.5392 5.59078C17.7564 5.78391 17.9621 5.9896 18.1552 6.2068C18.2871 6.35537 18.4694 6.44975 18.6669 6.47167L20.9323 6.72349C21.1849 7.20557 21.3941 7.70921 21.5573 8.22842L20.1337 10.0083C20.0082 10.1649 19.9459 10.3628 19.9591 10.5631H19.9621Z" fill="#F7F9F9"/>
</svg>
